<svg width="287" height="40" viewBox="0 0 287 40" fill="none" xmlns="http://www.w3.org/2000/svg">
<path d="M67.333 27.5631H78.2225L76.8641 33.9997H65.9745C60.5618 33.9997 57.0862 29.6771 58.2116 24.3449L61.0417 10.9353H67.5754L64.7453 24.3449C64.3702 26.1223 65.5287 27.5631 67.333 27.5631Z" fill="#0A0048"></path>
<path d="M131.007 10.9353L128.177 24.3449C127.052 29.6771 121.751 33.9997 116.339 33.9997H105.449L106.808 27.5631H117.697C119.501 27.5631 121.268 26.1223 121.643 24.3449L123.115 17.3719H113.937C113.593 17.3719 113.256 17.6465 113.185 17.9853C113.123 18.2777 113.28 18.5295 113.558 18.5869L122.393 20.4029L115.686 25.8728L110.945 24.8985C107.739 24.2394 105.942 21.3459 106.651 17.9853C107.473 14.0917 111.343 10.9353 115.295 10.9353H131.007Z" fill="#0A0048"></path>
<path fill-rule="evenodd" clip-rule="evenodd" d="M147.885 10.9374C153.298 10.9374 156.774 15.2601 155.648 20.5923L154.856 24.347C153.75 29.5895 148.608 33.8559 143.291 33.9979L144.648 27.5653L136.774 33.9875C131.665 33.7162 128.449 29.504 129.538 24.347L130.33 20.5923C131.438 15.3433 136.591 11.0727 141.915 10.9406L142.168 10.9374H147.885ZM140.726 17.3751C138.951 17.4191 137.233 18.8427 136.864 20.5923L136.072 24.347C135.696 26.1244 136.855 27.5653 138.659 27.5653H144.376C146.18 27.5653 147.947 26.1244 148.322 24.347L149.115 20.5923C149.49 18.8149 148.331 17.374 146.527 17.374H140.81L140.726 17.3751Z" fill="#0A0048"></path>
<path d="M160.714 33.9997H154.18L159.048 10.9353H165.581L160.714 33.9997Z" fill="#0A0048"></path>
<path d="M182.002 10.9353C186.615 10.9353 189.578 14.6196 188.618 19.1644C187.791 23.0869 184.267 26.4641 180.2 27.2334L176.05 28.0183L171.652 22.5484L180.251 20.922C181.137 20.7544 181.904 20.0187 182.085 19.1644C182.294 18.1744 181.648 17.3719 180.643 17.3719H172.662L169.153 33.9997H162.619L167.487 10.9353H182.002Z" fill="#0A0048"></path>
<path d="M213.516 10.9356L212.158 17.3721H196.841C196.579 17.3722 196.324 17.5808 196.269 17.8381C196.222 18.0602 196.341 18.2515 196.553 18.2951L206.445 20.3288L206.591 20.3608C209.639 21.0628 211.333 23.8585 210.65 27.0975C209.845 30.9096 206.056 33.9999 202.186 34H191.769L186.594 27.5634H203.544C203.806 27.5633 204.061 27.3548 204.116 27.0975C204.16 26.8892 204.058 26.7079 203.871 26.6501L203.832 26.6405L193.94 24.6068C190.801 23.9615 189.041 21.1284 189.736 17.8381C190.54 14.026 194.329 10.9356 198.199 10.9356H213.516Z" fill="#0A0048"></path>
<path d="M218.581 24.3449C218.206 26.1223 219.364 27.5631 221.169 27.5631H230.152L233.662 10.9353H240.195L235.328 33.9997H228.794L230.152 27.5631L222.26 33.9997H219.81C214.397 33.9997 210.922 29.6771 212.047 24.3449L214.877 10.9353H221.411L218.581 24.3449Z" fill="#0A0048"></path>
<path d="M248.363 10.9353L247.004 17.3719L254.896 10.9353H255.985C261.398 10.9353 264.874 15.2579 263.748 20.5902L260.918 33.9997H254.384L257.215 20.5902C257.59 18.8128 256.431 17.3719 254.627 17.3719H247.004L243.495 33.9997H236.961L241.829 10.9353H248.363Z" fill="#0A0048"></path>
<path d="M272.864 10.9353C278.277 10.9353 281.752 15.2579 280.627 20.5902L277.797 33.9997H271.263L274.093 20.5902C274.468 18.8128 273.31 17.3719 271.506 17.3719H263.883L271.775 10.9353H272.864Z" fill="#0A0048"></path>
<path fill-rule="evenodd" clip-rule="evenodd" d="M97.5216 10.9353C102.934 10.9353 106.41 15.2579 105.285 20.5901L104.492 24.3448C103.367 29.677 98.0667 33.9998 92.654 33.9998H86.937C81.5242 33.9998 78.0485 29.6771 79.1739 24.3448L79.9664 20.5901C81.0369 15.5183 85.8842 11.3602 91.0128 10.9661L96.1633 17.3719L97.5216 10.9353ZM90.3618 17.373C88.5872 17.417 86.8695 18.8405 86.5002 20.5901L85.7076 24.3448C85.3325 26.1222 86.4911 27.5632 88.2952 27.5632H94.0123C95.8165 27.5632 97.5833 26.1222 97.9584 24.3448L98.7509 20.5901C99.126 18.8127 97.9675 17.3719 96.1633 17.3719H90.4463L90.3618 17.373Z" fill="#0A0048"></path>
<path d="M287 9.29019C287 11.1073 285.537 12.5804 283.733 12.5804C281.929 12.5804 280.466 11.1073 280.466 9.29019C280.466 7.47307 281.929 6 283.733 6C285.537 6 287 7.47307 287 9.29019Z" fill="#0A0048"></path>
<path d="M43 31L31 40H5L7 35L12 31H29L32 35L40 11L45 7H50L43 31ZM43 5L38 9H21L18 5L10 29L5 33H0L7 9L19 0H45L43 5ZM24 13H35L29 31L26 27H15L21 9L24 13Z" fill="#297AFF"></path>
</svg>