<svg width="207" height="40" viewBox="0 0 207 40" fill="none" xmlns="http://www.w3.org/2000/svg">
<path d="M199.842 12.9905C201.986 12.9905 203.71 13.6517 205.013 14.9742C206.338 16.2758 207 18.1021 207 20.4532V30.687H202.585V21.0515C202.585 19.687 202.239 18.6479 201.545 17.9342C200.851 17.1994 199.905 16.8321 198.707 16.8321C197.509 16.8321 196.552 17.1994 195.837 17.9342C195.144 18.6479 194.797 19.687 194.797 21.0515V30.687H190.382V21.0515C190.382 19.687 190.035 18.6479 189.341 17.9342C188.648 17.1994 187.702 16.8321 186.504 16.8321C185.284 16.8321 184.317 17.1994 183.602 17.9342C182.909 18.6479 182.562 19.687 182.562 21.0515V30.687H178.147V13.2424H182.562V15.3521C183.129 14.6174 183.855 14.0401 184.738 13.6202C185.642 13.2004 186.63 12.9905 187.702 12.9905C189.068 12.9905 190.287 13.2843 191.36 13.8721C192.432 14.4389 193.262 15.2576 193.851 16.3282C194.418 15.3206 195.238 14.5124 196.31 13.9036C197.403 13.2948 198.581 12.9905 199.842 12.9905Z" fill="#170E57"></path>
<path d="M174.895 13.2424V30.687H170.449V28.4828C169.881 29.2385 169.135 29.8368 168.21 30.2777C167.306 30.6975 166.318 30.9074 165.246 30.9074C163.88 30.9074 162.671 30.624 161.62 30.0572C160.569 29.4695 159.738 28.6193 159.129 27.5067C158.54 26.3731 158.246 25.0296 158.246 23.4761V13.2424H162.66V22.8464C162.66 24.2319 163.007 25.3025 163.701 26.0582C164.395 26.7929 165.341 27.1603 166.539 27.1603C167.758 27.1603 168.715 26.7929 169.408 26.0582C170.102 25.3025 170.449 24.2319 170.449 22.8464V13.2424H174.895Z" fill="#170E57"></path>
<path d="M149.009 30.9704C147.58 30.9704 146.297 30.7185 145.162 30.2147C144.027 29.6899 143.123 28.9866 142.45 28.105C141.798 27.2233 141.441 26.2471 141.378 25.1765H145.824C145.908 25.8483 146.234 26.4046 146.802 26.8454C147.39 27.2863 148.116 27.5067 148.977 27.5067C149.818 27.5067 150.47 27.3387 150.933 27.0029C151.416 26.667 151.658 26.2366 151.658 25.7118C151.658 25.145 151.363 24.7252 150.775 24.4523C150.207 24.1584 149.293 23.8435 148.031 23.5076C146.728 23.1927 145.656 22.8674 144.815 22.5315C143.995 22.1956 143.281 21.6813 142.671 20.9885C142.082 20.2958 141.788 19.3616 141.788 18.1861C141.788 17.2204 142.061 16.3387 142.608 15.541C143.175 14.7433 143.974 14.1135 145.004 13.6517C146.055 13.1899 147.285 12.959 148.694 12.959C150.775 12.959 152.436 13.4838 153.676 14.5334C154.916 15.562 155.599 16.958 155.726 18.7214H151.5C151.437 18.0286 151.143 17.4828 150.617 17.084C150.113 16.6641 149.429 16.4542 148.568 16.4542C147.769 16.4542 147.149 16.6011 146.707 16.895C146.287 17.1889 146.076 17.5983 146.076 18.1231C146.076 18.7109 146.371 19.1622 146.959 19.4771C147.548 19.771 148.462 20.0754 149.703 20.3903C150.964 20.7052 152.005 21.0305 152.825 21.3664C153.644 21.7023 154.349 22.2271 154.937 22.9408C155.547 23.6336 155.862 24.5573 155.883 25.7118C155.883 26.7195 155.599 27.6221 155.032 28.4198C154.485 29.2176 153.686 29.8473 152.635 30.3092C151.605 30.75 150.396 30.9704 149.009 30.9704Z" fill="#170E57"></path>
<path d="M126.471 15.7614C127.039 14.9637 127.817 14.3025 128.805 13.7777C129.814 13.2319 130.959 12.959 132.242 12.959C133.734 12.959 135.08 13.3263 136.278 14.0611C137.497 14.7958 138.454 15.8454 139.148 17.2099C139.862 18.5534 140.22 20.1174 140.22 21.9017C140.22 23.6861 139.862 25.271 139.148 26.6565C138.454 28.021 137.497 29.0811 136.278 29.8368C135.08 30.5926 133.734 30.9704 132.242 30.9704C130.959 30.9704 129.824 30.708 128.836 30.1832C127.869 29.6584 127.081 28.9971 126.471 28.1994V39H122.057V13.2424H126.471V15.7614ZM135.71 21.9017C135.71 20.8521 135.49 19.9494 135.048 19.1937C134.628 18.417 134.06 17.8292 133.345 17.4303C132.652 17.0315 131.895 16.8321 131.075 16.8321C130.276 16.8321 129.519 17.042 128.805 17.4618C128.111 17.8607 127.543 18.4485 127.102 19.2252C126.681 20.0019 126.471 20.9151 126.471 21.9647C126.471 23.0143 126.681 23.9275 127.102 24.7042C127.543 25.4809 128.111 26.0792 128.805 26.499C129.519 26.8979 130.276 27.0973 131.075 27.0973C131.895 27.0973 132.652 26.8874 133.345 26.4676C134.06 26.0477 134.628 25.4494 135.048 24.6727C135.49 23.896 135.71 22.9723 135.71 21.9017Z" fill="#170E57"></path>
<path d="M116.623 11.1641C115.845 11.1641 115.193 10.9227 114.668 10.4399C114.163 9.93607 113.911 9.31679 113.911 8.58206C113.911 7.84733 114.163 7.23855 114.668 6.75572C115.193 6.25191 115.845 6 116.623 6C117.401 6 118.042 6.25191 118.546 6.75572C119.072 7.23855 119.335 7.84733 119.335 8.58206C119.335 9.31679 119.072 9.93607 118.546 10.4399C118.042 10.9227 117.401 11.1641 116.623 11.1641ZM118.799 13.2424V30.687H114.384V13.2424H118.799Z" fill="#170E57"></path>
<path d="M103.136 30.9704C101.455 30.9704 99.9409 30.6031 98.5955 29.8683C97.2501 29.1126 96.1885 28.0525 95.4107 26.688C94.6539 25.3235 94.2755 23.749 94.2755 21.9647C94.2755 20.1803 94.6644 18.6059 95.4422 17.2414C96.241 15.8769 97.3237 14.8273 98.6901 14.0926C100.057 13.3368 101.581 12.959 103.262 12.959C104.944 12.959 106.468 13.3368 107.835 14.0926C109.201 14.8273 110.273 15.8769 111.051 17.2414C111.85 18.6059 112.249 20.1803 112.249 21.9647C112.249 23.749 111.839 25.3235 111.02 26.688C110.221 28.0525 109.128 29.1126 107.74 29.8683C106.374 30.6031 104.839 30.9704 103.136 30.9704ZM103.136 27.1288C103.935 27.1288 104.681 26.9399 105.375 26.562C106.09 26.1632 106.657 25.5754 107.078 24.7987C107.498 24.0219 107.709 23.0773 107.709 21.9647C107.709 20.3063 107.267 19.0363 106.384 18.1546C105.522 17.2519 104.461 16.8006 103.199 16.8006C101.938 16.8006 100.876 17.2519 100.014 18.1546C99.1736 19.0363 98.7532 20.3063 98.7532 21.9647C98.7532 23.6231 99.1631 24.9036 99.983 25.8063C100.824 26.688 101.875 27.1288 103.136 27.1288Z" fill="#170E57"></path>
<path d="M84.1315 30.9704C82.4497 30.9704 80.9361 30.6031 79.5907 29.8683C78.2453 29.1126 77.1837 28.0525 76.4059 26.688C75.6491 25.3235 75.2707 23.749 75.2707 21.9647C75.2707 20.1803 75.6596 18.6059 76.4374 17.2414C77.2362 15.8769 78.3189 14.8273 79.6853 14.0926C81.0517 13.3368 82.5758 12.959 84.2576 12.959C85.9394 12.959 87.4635 13.3368 88.8299 14.0926C90.1963 14.8273 91.2684 15.8769 92.0463 17.2414C92.8451 18.6059 93.2445 20.1803 93.2445 21.9647C93.2445 23.749 92.8346 25.3235 92.0147 26.688C91.2159 28.0525 90.1227 29.1126 88.7353 29.8683C87.3689 30.6031 85.8343 30.9704 84.1315 30.9704ZM84.1315 27.1288C84.9303 27.1288 85.6766 26.9399 86.3703 26.562C87.0851 26.1632 87.6527 25.5754 88.0731 24.7987C88.4935 24.0219 88.7038 23.0773 88.7038 21.9647C88.7038 20.3063 88.2623 19.0363 87.3794 18.1546C86.5175 17.2519 85.4559 16.8006 84.1945 16.8006C82.9332 16.8006 81.8716 17.2519 81.0097 18.1546C80.1688 19.0363 79.7484 20.3063 79.7484 21.9647C79.7484 23.6231 80.1583 24.9036 80.9782 25.8063C81.819 26.688 82.8701 27.1288 84.1315 27.1288Z" fill="#170E57"></path>
<path d="M65.1267 30.9704C63.4449 30.9704 61.9313 30.6031 60.5859 29.8683C59.2405 29.1126 58.1789 28.0525 57.4011 26.688C56.6443 25.3235 56.2659 23.749 56.2659 21.9647C56.2659 20.1803 56.6548 18.6059 57.4326 17.2414C58.2314 15.8769 59.3141 14.8273 60.6805 14.0926C62.0469 13.3368 63.571 12.959 65.2528 12.959C66.9346 12.959 68.4587 13.3368 69.8251 14.0926C71.1915 14.8273 72.2636 15.8769 73.0415 17.2414C73.8403 18.6059 74.2397 20.1803 74.2397 21.9647C74.2397 23.749 73.8298 25.3235 73.0099 26.688C72.2111 28.0525 71.1179 29.1126 69.7305 29.8683C68.3641 30.6031 66.8295 30.9704 65.1267 30.9704ZM65.1267 27.1288C65.9255 27.1288 66.6718 26.9399 67.3655 26.562C68.0803 26.1632 68.6479 25.5754 69.0683 24.7987C69.4887 24.0219 69.699 23.0773 69.699 21.9647C69.699 20.3063 69.2575 19.0363 68.3746 18.1546C67.5127 17.2519 66.4511 16.8006 65.1897 16.8006C63.9284 16.8006 62.8668 17.2519 62.0049 18.1546C61.164 19.0363 60.7436 20.3063 60.7436 21.9647C60.7436 23.6231 61.1535 24.9036 61.9734 25.8063C62.8142 26.688 63.8653 27.1288 65.1267 27.1288Z" fill="#170E57"></path>
<path d="M48.4146 27.1918H55.6672V30.687H44V8.70799H48.4146V27.1918Z" fill="#170E57"></path>
<path d="M76.4355 33.0303C77.5537 36.3511 80.6967 38.7431 84.3991 38.7431H84.8599C89.499 38.7431 93.2598 34.9877 93.2598 30.3551V29.8811H88.7058V30.3551C88.7058 32.4761 86.9839 34.1956 84.8599 34.1956H84.3991C83.3166 34.1956 82.3386 33.749 81.6397 33.0303H76.4355Z" fill="#170E57"></path>
<path d="M15 0L20.4545 5.33333L0 25.3333V14.6667L15 0Z" fill="#06D1D4"></path>
<path d="M2.90827 28.177L15 40L30 25.3334V14.6667L20.4545 5.33337L0 25.3334L0.0041688 25.3375L20.4545 5.33337V20.6667L11.25 29.6667V20.1324L2.90827 28.177Z" fill="#3628A0"></path>
</svg>