<svg width="259" height="45" viewBox="0 0 259 45" fill="none" xmlns="http://www.w3.org/2000/svg">
<path d="M37 27C37 20.3726 31.6274 15 25 15H15V27H25V42H37V27Z" fill="#FF4D00"></path>
<path d="M8.74224e-08 28C8.74282e-07 35.732 6.26801 42 14 42L22 42L22 30H14C12.8954 30 12 29.1046 12 28V27L0 27L8.74224e-08 28Z" fill="#FF4D00"></path>
<path d="M25 0C39.9117 0 52 12.0883 52 27V42H40V27C40 18.7157 33.2843 12 25 12H14C12.8954 12 12 12.8954 12 14V15H1.31134e-06V14C2.0982e-06 6.26801 6.26802 -3.16941e-08 14 0H25Z" fill="#FF4D00"></path>
<path d="M152.17 11.5174C151.387 11.5174 150.731 11.2529 150.2 10.7238C149.67 10.1948 149.405 9.53973 149.405 8.75872C149.405 7.97771 149.67 7.32267 150.2 6.79361C150.731 6.26454 151.387 6 152.17 6C152.927 6 153.571 6.26454 154.101 6.79361C154.631 7.32267 154.896 7.97771 154.896 8.75872C154.896 9.53973 154.631 10.1948 154.101 10.7238C153.571 11.2529 152.927 11.5174 152.17 11.5174Z" fill="#161616"></path>
<path d="M154.29 14.2762V35.0988H149.973V14.2762H154.29Z" fill="#161616"></path>
<path fill-rule="evenodd" clip-rule="evenodd" d="M165.942 14.9186C164.679 15.5736 163.682 16.3798 162.95 17.3372V14.2762H158.633V45H162.95V32.0756C163.733 33.0329 164.743 33.8391 165.98 34.4942C167.217 35.124 168.63 35.439 170.221 35.439C172.039 35.439 173.692 34.9855 175.182 34.0785C176.697 33.1463 177.883 31.8614 178.742 30.2238C179.6 28.561 180.029 26.6841 180.029 24.593C180.029 22.5019 179.6 20.6502 178.742 19.0378C177.883 17.4254 176.697 16.1783 175.182 15.2965C173.692 14.3895 172.039 13.9361 170.221 13.9361C168.63 13.9361 167.204 14.2636 165.942 14.9186ZM174.727 20.8895C175.333 21.9225 175.636 23.157 175.636 24.593C175.636 26.0291 175.333 27.2888 174.727 28.3721C174.147 29.4554 173.364 30.2868 172.38 30.8663C171.42 31.4205 170.385 31.6977 169.274 31.6977C168.189 31.6977 167.154 31.4205 166.169 30.8663C165.21 30.312 164.427 29.5058 163.821 28.4477C163.24 27.3643 162.95 26.1047 162.95 24.6686C162.95 23.2326 163.24 21.9855 163.821 20.9273C164.427 19.8692 165.21 19.063 166.169 18.5087C167.154 17.9545 168.189 17.6773 169.274 17.6773C170.385 17.6773 171.42 17.9545 172.38 18.5087C173.364 19.0378 174.147 19.8314 174.727 20.8895Z" fill="#161616"></path>
<path d="M190.547 35.439C188.906 35.439 187.429 35.1492 186.116 34.5698C184.829 33.9651 183.806 33.1589 183.049 32.1512C182.291 31.1182 181.887 29.9719 181.837 28.7122H186.306C186.381 29.594 186.798 30.3372 187.555 30.9419C188.338 31.5213 189.31 31.811 190.471 31.811C191.683 31.811 192.617 31.5843 193.274 31.1308C193.955 30.6521 194.296 30.0475 194.296 29.3169C194.296 28.5359 193.917 27.9564 193.16 27.5785C192.428 27.2006 191.254 26.7849 189.638 26.3314C188.073 25.9031 186.798 25.4874 185.813 25.0843C184.829 24.6812 183.97 24.064 183.238 23.2326C182.531 22.4012 182.178 21.3052 182.178 19.9448C182.178 18.8362 182.506 17.8285 183.162 16.9215C183.819 15.9893 184.753 15.2587 185.965 14.7297C187.202 14.2006 188.616 13.9361 190.206 13.9361C192.579 13.9361 194.485 14.5407 195.924 15.75C197.389 16.9341 198.171 18.5591 198.272 20.625H193.955C193.879 19.6928 193.501 18.9496 192.819 18.3954C192.137 17.8411 191.216 17.564 190.055 17.564C188.919 17.564 188.048 17.7781 187.442 18.2064C186.836 18.6347 186.533 19.2016 186.533 19.907C186.533 20.4612 186.735 20.9273 187.139 21.3052C187.543 21.6831 188.035 21.9855 188.616 22.2122C189.196 22.4138 190.055 22.6783 191.191 23.0058C192.706 23.4089 193.943 23.8246 194.902 24.2529C195.887 24.656 196.732 25.2607 197.439 26.0669C198.146 26.8731 198.512 27.9438 198.537 29.2791C198.537 30.4632 198.209 31.5213 197.553 32.4535C196.896 33.3857 195.962 34.1163 194.75 34.6453C193.564 35.1744 192.163 35.439 190.547 35.439Z" fill="#161616"></path>
<path d="M254.796 14.9564C253.509 14.2762 252.045 13.9361 250.404 13.9361C248.864 13.9361 247.424 14.314 246.086 15.0698C244.748 15.8004 243.764 16.7955 243.133 18.0552C242.426 16.72 241.416 15.6996 240.103 14.9942C238.79 14.2888 237.301 13.9361 235.634 13.9361C234.397 13.9361 233.236 14.1754 232.15 14.6541C231.065 15.1328 230.169 15.8004 229.462 16.657V14.2762H225.144V35.0988H229.462V23.4593C229.462 21.595 229.929 20.1715 230.863 19.189C231.822 18.1812 233.11 17.6773 234.726 17.6773C236.341 17.6773 237.616 18.1812 238.55 19.189C239.484 20.1715 239.952 21.595 239.952 23.4593V35.0988H244.231V23.4593C244.231 21.595 244.698 20.1715 245.632 19.189C246.591 18.1812 247.879 17.6773 249.495 17.6773C251.11 17.6773 252.385 18.1812 253.32 19.189C254.254 20.1715 254.721 21.595 254.721 23.4593V35.0988H259V22.8169C259 20.9273 258.621 19.3149 257.864 17.9797C257.132 16.6444 256.109 15.6366 254.796 14.9564Z" fill="#161616"></path>
<path d="M220.774 35.0988V14.2762H216.457V25.8779C216.457 27.7422 215.977 29.1783 215.018 30.186C214.083 31.1686 212.809 31.6599 211.193 31.6599C209.577 31.6599 208.302 31.1686 207.368 30.186C206.434 29.1783 205.967 27.7422 205.967 25.8779V14.2762H201.687V26.5203C201.687 28.4099 202.054 30.0223 202.786 31.3576C203.543 32.6928 204.566 33.7006 205.853 34.3808C207.166 35.061 208.643 35.4012 210.284 35.4012C211.521 35.4012 212.682 35.1618 213.768 34.6831C214.879 34.1793 215.775 33.499 216.457 32.6424V35.0988H220.774Z" fill="#161616"></path>
<path fill-rule="evenodd" clip-rule="evenodd" d="M130.86 34.1163C132.451 34.9981 134.231 35.439 136.2 35.439C138.195 35.439 140.012 34.9981 141.653 34.1163C143.32 33.2093 144.632 31.937 145.592 30.2994C146.551 28.6618 147.031 26.7849 147.031 24.6686C147.031 22.5523 146.564 20.6754 145.63 19.0378C144.696 17.4002 143.421 16.1405 141.805 15.2587C140.189 14.3769 138.384 13.9361 136.389 13.9361C134.395 13.9361 132.59 14.3769 130.974 15.2587C129.358 16.1405 128.083 17.4002 127.149 19.0378C126.215 20.6754 125.748 22.5523 125.748 24.6686C125.748 26.8101 126.202 28.6996 127.111 30.3372C128.02 31.9496 129.27 33.2093 130.86 34.1163ZM139.305 30.9041C138.346 31.4331 137.311 31.6977 136.2 31.6977C134.458 31.6977 133.006 31.093 131.845 29.8837C130.709 28.6492 130.141 26.9109 130.141 24.6686C130.141 23.157 130.419 21.8847 130.974 20.8517C131.529 19.7936 132.274 19 133.208 18.4709C134.168 17.9419 135.203 17.6773 136.314 17.6773C137.425 17.6773 138.46 17.9419 139.419 18.4709C140.378 19 141.148 19.7936 141.729 20.8517C142.31 21.8847 142.6 23.157 142.6 24.6686C142.6 26.1802 142.297 27.4651 141.691 28.5233C141.085 29.5814 140.29 30.375 139.305 30.9041Z" fill="#161616"></path>
<path fill-rule="evenodd" clip-rule="evenodd" d="M108.124 34.1644C108.095 34.1485 108.066 34.1325 108.037 34.1163C106.446 33.2093 105.196 31.9496 104.287 30.3372C103.379 28.6996 102.924 26.8101 102.924 24.6686C102.924 22.5523 103.391 20.6754 104.325 19.0378C105.259 17.4002 106.534 16.1405 108.15 15.2587C109.766 14.3769 111.571 13.9361 113.566 13.9361C115.56 13.9361 117.365 14.3769 118.981 15.2587C120.597 16.1405 121.872 17.4002 122.806 19.0378C123.74 20.6754 124.207 22.5523 124.207 24.6686C124.207 26.7849 123.727 28.6618 122.768 30.2994C121.809 31.937 120.496 33.2093 118.829 34.1163C117.418 34.8746 115.876 35.3068 114.204 35.413C116.253 36.3488 119.371 37.1043 121.121 37.5285C121.87 37.71 122.369 37.8309 122.427 37.8792L122.43 37.8798V42.1909H106.701V37.8798H115.765C113.459 37.3602 110.328 35.6544 108.124 34.1644ZM113.376 31.6977C114.487 31.6977 115.522 31.4331 116.482 30.9041C117.466 30.375 118.261 29.5814 118.867 28.5233C119.473 27.4651 119.776 26.1802 119.776 24.6686C119.776 23.157 119.486 21.8847 118.905 20.8517C118.325 19.7936 117.554 19 116.595 18.4709C115.636 17.9419 114.601 17.6773 113.49 17.6773C112.379 17.6773 111.344 17.9419 110.384 18.4709C109.45 19 108.706 19.7936 108.15 20.8517C107.595 21.8847 107.317 23.157 107.317 24.6686C107.317 26.9109 107.885 28.6492 109.021 29.8837C110.183 31.093 111.634 31.6977 113.376 31.6977Z" fill="#161616"></path>
<path fill-rule="evenodd" clip-rule="evenodd" d="M85.2127 34.1163C86.8032 34.9981 88.5831 35.439 90.5523 35.439C92.5468 35.439 94.3645 34.9981 96.0055 34.1163C97.6718 33.2093 98.9846 31.937 99.944 30.2994C100.903 28.6618 101.383 26.7849 101.383 24.6686C101.383 22.5523 100.916 20.6754 99.9818 19.0378C99.0477 17.4002 97.7728 16.1405 96.157 15.2587C94.5412 14.3769 92.7361 13.9361 90.7416 13.9361C88.7472 13.9361 86.942 14.3769 85.3263 15.2587C83.7105 16.1405 82.4355 17.4002 81.5014 19.0378C80.5673 20.6754 80.1003 22.5523 80.1003 24.6686C80.1003 26.8101 80.5547 28.6996 81.4636 30.3372C82.3724 31.9496 83.6221 33.2093 85.2127 34.1163ZM93.6576 30.9041C92.6982 31.4331 91.6631 31.6977 90.5523 31.6977C88.8103 31.6977 87.3586 31.093 86.1973 29.8837C85.0612 28.6492 84.4931 26.9109 84.4931 24.6686C84.4931 23.157 84.7708 21.8847 85.3263 20.8517C85.8817 19.7936 86.6265 19 87.5606 18.4709C88.52 17.9419 89.5551 17.6773 90.6659 17.6773C91.7767 17.6773 92.8119 17.9419 93.7712 18.4709C94.7306 19 95.5006 19.7936 96.0813 20.8517C96.6619 21.8847 96.9523 23.157 96.9523 24.6686C96.9523 26.1802 96.6493 27.4651 96.0434 28.5233C95.4375 29.5814 94.6422 30.375 93.6576 30.9041Z" fill="#161616"></path>
<path d="M70.3171 31.6221H79.2165V35.0988H66V8.83428H70.3171V31.6221Z" fill="#161616"></path>
</svg>